<svg xmlns="http://www.w3.org/2000/svg" viewBox="0 0 120 120" fill="none" stroke="#795465" stroke-width="3" stroke-linecap="round" stroke-linejoin="round">
    <!-- Ribbon/Bow -->
    <path d="M50 75 Q 40 65 35 75 Q 45 80 50 75" />
    <path d="M70 75 Q 80 65 85 75 Q 75 80 70 75" />
    <path d="M60 75 C 60 75 45 100 40 110" />
    <path d="M60 75 C 60 75 75 100 80 110" />
    <circle cx="60" cy="75" r="4" fill="#795465" />
    
    <!-- Wrapping Paper -->
    <path d="M35 70 L20 40 L40 45" />
    <path d="M85 70 L100 40 L80 45" />
    <path d="M40 75 L45 110 L75 110 L80 75" />
    
    <!-- Central Flower -->
    <path d="M60 45 C 50 35 40 50 60 60 C 80 50 70 35 60 45 Z" />
    <circle cx="60" cy="50" r="3" fill="#795465" />

    <!-- Left Flower -->
    <path d="M40 30 C 25 25 30 45 45 45 C 55 30 45 20 40 30 Z" />
    <circle cx="38" cy="35" r="2" fill="#795465" />

    <!-- Right Flower -->
    <path d="M80 30 C 95 25 90 45 75 45 C 65 30 75 20 80 30 Z" />
    <circle cx="82" cy="35" r="2" fill="#795465" />

    <!-- Top Flower -->
    <path d="M60 20 C 50 10 40 25 55 35 C 70 25 65 10 60 20 Z" />
    <circle cx="58" cy="24" r="2" fill="#795465" />

    <!-- Leaves -->
    <path d="M45 60 Q 30 55 35 70 Q 45 65 45 60" />
    <path d="M75 60 Q 90 55 85 70 Q 75 65 75 60" />
    <path d="M45 45 Q 35 35 30 45" />
    <path d="M75 45 Q 85 35 90 45" />
</svg>
